<mxfile host="app.diagrams.net" agent="Mozilla/5.0 (Macintosh; Intel Mac OS X 10_15_7) AppleWebKit/537.36 (KHTML, like Gecko) Chrome/136.0.0.0 Safari/537.36" version="27.0.6">
  <diagram name="Page-1" id="ITvNtSJFb8Fn1lsADvcn">
    <mxGraphModel dx="1007" dy="2260" grid="1" gridSize="10" guides="1" tooltips="1" connect="1" arrows="1" fold="1" page="1" pageScale="1" pageWidth="850" pageHeight="1100" math="0" shadow="0">
      <root>
        <mxCell id="0" />
        <mxCell id="1" parent="0" />
        <mxCell id="sktAWSOI8GVg2XgU-wJy-18" value="AWS Cloud" style="points=[[0,0],[0.25,0],[0.5,0],[0.75,0],[1,0],[1,0.25],[1,0.5],[1,0.75],[1,1],[0.75,1],[0.5,1],[0.25,1],[0,1],[0,0.75],[0,0.5],[0,0.25]];outlineConnect=0;gradientColor=none;html=1;whiteSpace=wrap;fontSize=12;fontStyle=0;container=1;pointerEvents=0;collapsible=0;recursiveResize=0;shape=mxgraph.aws4.group;grIcon=mxgraph.aws4.group_aws_cloud;strokeColor=#232F3E;fillColor=none;verticalAlign=top;align=left;spacingLeft=30;fontColor=#232F3E;dashed=0;" vertex="1" parent="1">
          <mxGeometry x="20" y="-520" width="800" height="1500" as="geometry" />
        </mxCell>
        <mxCell id="sktAWSOI8GVg2XgU-wJy-17" value="VPC" style="points=[[0,0],[0.25,0],[0.5,0],[0.75,0],[1,0],[1,0.25],[1,0.5],[1,0.75],[1,1],[0.75,1],[0.5,1],[0.25,1],[0,1],[0,0.75],[0,0.5],[0,0.25]];outlineConnect=0;gradientColor=none;html=1;whiteSpace=wrap;fontSize=12;fontStyle=0;container=1;pointerEvents=0;collapsible=0;recursiveResize=0;shape=mxgraph.aws4.group;grIcon=mxgraph.aws4.group_vpc2;strokeColor=#8C4FFF;fillColor=none;verticalAlign=top;align=left;spacingLeft=30;fontColor=#AAB7B8;dashed=0;" vertex="1" parent="sktAWSOI8GVg2XgU-wJy-18">
          <mxGeometry x="20" y="210" width="760" height="870" as="geometry" />
        </mxCell>
        <mxCell id="sktAWSOI8GVg2XgU-wJy-67" value="Region" style="points=[[0,0],[0.25,0],[0.5,0],[0.75,0],[1,0],[1,0.25],[1,0.5],[1,0.75],[1,1],[0.75,1],[0.5,1],[0.25,1],[0,1],[0,0.75],[0,0.5],[0,0.25]];outlineConnect=0;gradientColor=none;html=1;whiteSpace=wrap;fontSize=12;fontStyle=0;container=1;pointerEvents=0;collapsible=0;recursiveResize=0;shape=mxgraph.aws4.group;grIcon=mxgraph.aws4.group_region;strokeColor=#00A4A6;fillColor=none;verticalAlign=top;align=left;spacingLeft=30;fontColor=#147EBA;dashed=1;" vertex="1" parent="1">
          <mxGeometry x="30" y="-480" width="780" height="1450" as="geometry" />
        </mxCell>
        <mxCell id="sktAWSOI8GVg2XgU-wJy-79" value="Availability Zone A" style="sketch=0;outlineConnect=0;gradientColor=none;html=1;whiteSpace=wrap;fontSize=12;fontStyle=0;shape=mxgraph.aws4.group;grIcon=mxgraph.aws4.group_availability_zone;strokeColor=#545B64;fillColor=none;verticalAlign=top;align=left;spacingLeft=30;fontColor=#545B64;dashed=1;" vertex="1" parent="sktAWSOI8GVg2XgU-wJy-67">
          <mxGeometry x="20" y="270" width="330" height="760" as="geometry" />
        </mxCell>
        <mxCell id="sktAWSOI8GVg2XgU-wJy-87" value="Private subnet" style="points=[[0,0],[0.25,0],[0.5,0],[0.75,0],[1,0],[1,0.25],[1,0.5],[1,0.75],[1,1],[0.75,1],[0.5,1],[0.25,1],[0,1],[0,0.75],[0,0.5],[0,0.25]];outlineConnect=0;gradientColor=none;html=1;whiteSpace=wrap;fontSize=12;fontStyle=0;container=1;pointerEvents=0;collapsible=0;recursiveResize=0;shape=mxgraph.aws4.group;grIcon=mxgraph.aws4.group_security_group;grStroke=0;strokeColor=#00A4A6;fillColor=#E6F6F7;verticalAlign=top;align=left;spacingLeft=30;fontColor=#147EBA;dashed=0;" vertex="1" parent="sktAWSOI8GVg2XgU-wJy-67">
          <mxGeometry x="25.5" y="420" width="314.5" height="600" as="geometry" />
        </mxCell>
        <mxCell id="sktAWSOI8GVg2XgU-wJy-102" value="Web Tier&amp;nbsp;&lt;div&gt;(Frontend)&lt;/div&gt;" style="text;html=1;align=center;verticalAlign=middle;resizable=0;points=[];autosize=1;strokeColor=none;fillColor=none;" vertex="1" parent="sktAWSOI8GVg2XgU-wJy-87">
          <mxGeometry x="9.5" y="15" width="80" height="40" as="geometry" />
        </mxCell>
        <mxCell id="sktAWSOI8GVg2XgU-wJy-115" value="App Tier&amp;nbsp;&lt;div&gt;(Backend)&lt;/div&gt;" style="text;html=1;align=center;verticalAlign=middle;resizable=0;points=[];autosize=1;strokeColor=none;fillColor=none;" vertex="1" parent="sktAWSOI8GVg2XgU-wJy-87">
          <mxGeometry x="9.5" y="350" width="80" height="40" as="geometry" />
        </mxCell>
        <mxCell id="sktAWSOI8GVg2XgU-wJy-125" value="" style="edgeStyle=orthogonalEdgeStyle;html=1;endArrow=none;elbow=vertical;startArrow=block;startFill=1;endFill=1;strokeColor=#000000;rounded=0;" edge="1" parent="sktAWSOI8GVg2XgU-wJy-87" source="sktAWSOI8GVg2XgU-wJy-103">
          <mxGeometry width="100" relative="1" as="geometry">
            <mxPoint x="174.5" y="390" as="sourcePoint" />
            <mxPoint x="330.5" y="280" as="targetPoint" />
            <Array as="points">
              <mxPoint x="175" y="280" />
            </Array>
          </mxGeometry>
        </mxCell>
        <mxCell id="sktAWSOI8GVg2XgU-wJy-126" value="" style="edgeStyle=orthogonalEdgeStyle;html=1;endArrow=none;elbow=vertical;startArrow=block;startFill=1;endFill=1;strokeColor=#000000;rounded=0;" edge="1" parent="sktAWSOI8GVg2XgU-wJy-87" source="sktAWSOI8GVg2XgU-wJy-80">
          <mxGeometry width="100" relative="1" as="geometry">
            <mxPoint x="254.5" y="390" as="sourcePoint" />
            <mxPoint x="324.5" y="290" as="targetPoint" />
            <Array as="points">
              <mxPoint x="255" y="290" />
            </Array>
          </mxGeometry>
        </mxCell>
        <mxCell id="sktAWSOI8GVg2XgU-wJy-131" value="" style="edgeStyle=orthogonalEdgeStyle;html=1;endArrow=none;elbow=vertical;startArrow=block;startFill=1;endFill=1;strokeColor=#000000;rounded=0;" edge="1" parent="sktAWSOI8GVg2XgU-wJy-87">
          <mxGeometry width="100" relative="1" as="geometry">
            <mxPoint x="174.5" y="90" as="sourcePoint" />
            <mxPoint x="330" y="10" as="targetPoint" />
            <Array as="points">
              <mxPoint x="174.5" y="10" />
            </Array>
          </mxGeometry>
        </mxCell>
        <mxCell id="sktAWSOI8GVg2XgU-wJy-132" value="" style="edgeStyle=orthogonalEdgeStyle;html=1;endArrow=none;elbow=vertical;startArrow=block;startFill=1;endFill=1;strokeColor=#000000;rounded=0;" edge="1" parent="sktAWSOI8GVg2XgU-wJy-87">
          <mxGeometry width="100" relative="1" as="geometry">
            <mxPoint x="254.5" y="90" as="sourcePoint" />
            <mxPoint x="324" y="20" as="targetPoint" />
            <Array as="points">
              <mxPoint x="254.5" y="20" />
            </Array>
          </mxGeometry>
        </mxCell>
        <mxCell id="sktAWSOI8GVg2XgU-wJy-73" value="Availability Zone B" style="sketch=0;outlineConnect=0;gradientColor=none;html=1;whiteSpace=wrap;fontSize=12;fontStyle=0;shape=mxgraph.aws4.group;grIcon=mxgraph.aws4.group_availability_zone;strokeColor=#545B64;fillColor=none;verticalAlign=top;align=left;spacingLeft=30;fontColor=#545B64;dashed=1;movable=1;resizable=1;rotatable=1;deletable=1;editable=1;locked=0;connectable=1;" vertex="1" parent="sktAWSOI8GVg2XgU-wJy-67">
          <mxGeometry x="430" y="270" width="330" height="760" as="geometry" />
        </mxCell>
        <mxCell id="sktAWSOI8GVg2XgU-wJy-90" value="Private subnet" style="points=[[0,0],[0.25,0],[0.5,0],[0.75,0],[1,0],[1,0.25],[1,0.5],[1,0.75],[1,1],[0.75,1],[0.5,1],[0.25,1],[0,1],[0,0.75],[0,0.5],[0,0.25]];outlineConnect=0;gradientColor=none;html=1;whiteSpace=wrap;fontSize=12;fontStyle=0;container=1;pointerEvents=0;collapsible=0;recursiveResize=0;shape=mxgraph.aws4.group;grIcon=mxgraph.aws4.group_security_group;grStroke=0;strokeColor=#00A4A6;fillColor=#E6F6F7;verticalAlign=top;align=left;spacingLeft=30;fontColor=#147EBA;dashed=0;" vertex="1" parent="sktAWSOI8GVg2XgU-wJy-67">
          <mxGeometry x="440" y="420" width="310" height="600" as="geometry" />
        </mxCell>
        <mxCell id="sktAWSOI8GVg2XgU-wJy-128" value="" style="edgeStyle=orthogonalEdgeStyle;html=1;endArrow=none;elbow=vertical;startArrow=block;startFill=1;endFill=1;strokeColor=#000000;rounded=0;" edge="1" parent="sktAWSOI8GVg2XgU-wJy-90" source="sktAWSOI8GVg2XgU-wJy-76">
          <mxGeometry width="100" relative="1" as="geometry">
            <mxPoint x="60" y="390" as="sourcePoint" />
            <mxPoint x="-10" y="290" as="targetPoint" />
            <Array as="points">
              <mxPoint x="60" y="290" />
            </Array>
          </mxGeometry>
        </mxCell>
        <mxCell id="sktAWSOI8GVg2XgU-wJy-127" value="" style="edgeStyle=orthogonalEdgeStyle;html=1;endArrow=none;elbow=vertical;startArrow=block;startFill=1;endFill=1;strokeColor=#000000;rounded=0;" edge="1" parent="sktAWSOI8GVg2XgU-wJy-90" source="sktAWSOI8GVg2XgU-wJy-104">
          <mxGeometry width="100" relative="1" as="geometry">
            <mxPoint x="150" y="390" as="sourcePoint" />
            <mxPoint x="-10" y="280" as="targetPoint" />
            <Array as="points">
              <mxPoint x="150" y="280" />
            </Array>
          </mxGeometry>
        </mxCell>
        <mxCell id="sktAWSOI8GVg2XgU-wJy-120" value="Auto Scaling group" style="points=[[0,0],[0.25,0],[0.5,0],[0.75,0],[1,0],[1,0.25],[1,0.5],[1,0.75],[1,1],[0.75,1],[0.5,1],[0.25,1],[0,1],[0,0.75],[0,0.5],[0,0.25]];outlineConnect=0;gradientColor=none;html=1;whiteSpace=wrap;fontSize=12;fontStyle=0;container=1;pointerEvents=0;collapsible=0;recursiveResize=0;shape=mxgraph.aws4.groupCenter;grIcon=mxgraph.aws4.group_auto_scaling_group;grStroke=1;strokeColor=#D86613;fillColor=none;verticalAlign=top;align=center;fontColor=#D86613;dashed=1;spacingTop=25;" vertex="1" parent="sktAWSOI8GVg2XgU-wJy-90">
          <mxGeometry x="-320" y="80" width="540" height="140" as="geometry" />
        </mxCell>
        <mxCell id="sktAWSOI8GVg2XgU-wJy-133" value="" style="edgeStyle=orthogonalEdgeStyle;html=1;endArrow=none;elbow=vertical;startArrow=block;startFill=1;endFill=1;strokeColor=#000000;rounded=0;" edge="1" parent="sktAWSOI8GVg2XgU-wJy-90">
          <mxGeometry width="100" relative="1" as="geometry">
            <mxPoint x="60" y="90" as="sourcePoint" />
            <mxPoint x="-10" y="20" as="targetPoint" />
            <Array as="points">
              <mxPoint x="60" y="20" />
            </Array>
          </mxGeometry>
        </mxCell>
        <mxCell id="sktAWSOI8GVg2XgU-wJy-134" value="" style="edgeStyle=orthogonalEdgeStyle;html=1;endArrow=none;elbow=vertical;startArrow=block;startFill=1;endFill=1;strokeColor=#000000;rounded=0;" edge="1" parent="sktAWSOI8GVg2XgU-wJy-90">
          <mxGeometry width="100" relative="1" as="geometry">
            <mxPoint x="150" y="90" as="sourcePoint" />
            <mxPoint x="-10" y="10" as="targetPoint" />
            <Array as="points">
              <mxPoint x="150" y="10" />
            </Array>
          </mxGeometry>
        </mxCell>
        <mxCell id="sktAWSOI8GVg2XgU-wJy-61" value="Public subnet" style="points=[[0,0],[0.25,0],[0.5,0],[0.75,0],[1,0],[1,0.25],[1,0.5],[1,0.75],[1,1],[0.75,1],[0.5,1],[0.25,1],[0,1],[0,0.75],[0,0.5],[0,0.25]];outlineConnect=0;gradientColor=none;html=1;whiteSpace=wrap;fontSize=12;fontStyle=0;container=1;pointerEvents=0;collapsible=0;recursiveResize=0;shape=mxgraph.aws4.group;grIcon=mxgraph.aws4.group_security_group;grStroke=0;strokeColor=#7AA116;fillColor=#F2F6E8;verticalAlign=top;align=left;spacingLeft=30;fontColor=#248814;dashed=0;" vertex="1" parent="sktAWSOI8GVg2XgU-wJy-67">
          <mxGeometry x="440" y="300" width="310" height="90" as="geometry" />
        </mxCell>
        <mxCell id="sktAWSOI8GVg2XgU-wJy-109" value="" style="edgeStyle=orthogonalEdgeStyle;rounded=0;orthogonalLoop=1;jettySize=auto;html=1;startArrow=none;startFill=0;endArrow=block;endFill=1;" edge="1" parent="sktAWSOI8GVg2XgU-wJy-67" source="sktAWSOI8GVg2XgU-wJy-83" target="sktAWSOI8GVg2XgU-wJy-6">
          <mxGeometry relative="1" as="geometry" />
        </mxCell>
        <mxCell id="sktAWSOI8GVg2XgU-wJy-77" value="Amazon RDS&lt;div&gt;(Primary)&lt;/div&gt;" style="sketch=0;outlineConnect=0;fontColor=#232F3E;gradientColor=none;strokeColor=#ffffff;fillColor=#232F3E;dashed=0;verticalLabelPosition=middle;verticalAlign=bottom;align=center;html=1;whiteSpace=wrap;fontSize=10;fontStyle=1;spacing=3;shape=mxgraph.aws4.productIcon;prIcon=mxgraph.aws4.rds;" vertex="1" parent="sktAWSOI8GVg2XgU-wJy-67">
          <mxGeometry x="240" y="900" width="80" height="110" as="geometry" />
        </mxCell>
        <mxCell id="sktAWSOI8GVg2XgU-wJy-80" value="Amazon EC2&amp;nbsp;&lt;div&gt;(Patient)&lt;/div&gt;" style="sketch=0;outlineConnect=0;fontColor=#232F3E;gradientColor=none;strokeColor=#ffffff;fillColor=#232F3E;dashed=0;verticalLabelPosition=middle;verticalAlign=bottom;align=center;html=1;whiteSpace=wrap;fontSize=10;fontStyle=1;spacing=3;shape=mxgraph.aws4.productIcon;prIcon=mxgraph.aws4.ec2;" vertex="1" parent="sktAWSOI8GVg2XgU-wJy-67">
          <mxGeometry x="240" y="780" width="80" height="105" as="geometry" />
        </mxCell>
        <mxCell id="sktAWSOI8GVg2XgU-wJy-86" value="Public subnet" style="points=[[0,0],[0.25,0],[0.5,0],[0.75,0],[1,0],[1,0.25],[1,0.5],[1,0.75],[1,1],[0.75,1],[0.5,1],[0.25,1],[0,1],[0,0.75],[0,0.5],[0,0.25]];outlineConnect=0;gradientColor=none;html=1;whiteSpace=wrap;fontSize=12;fontStyle=0;container=1;pointerEvents=0;collapsible=0;recursiveResize=0;shape=mxgraph.aws4.group;grIcon=mxgraph.aws4.group_security_group;grStroke=0;strokeColor=#7AA116;fillColor=#F2F6E8;verticalAlign=top;align=left;spacingLeft=30;fontColor=#248814;dashed=0;" vertex="1" parent="sktAWSOI8GVg2XgU-wJy-67">
          <mxGeometry x="30" y="300" width="310" height="90" as="geometry" />
        </mxCell>
        <mxCell id="sktAWSOI8GVg2XgU-wJy-81" value="NAT gateway&lt;div&gt;(Outbound Internet)&lt;/div&gt;" style="sketch=0;outlineConnect=0;fontColor=#232F3E;gradientColor=none;strokeColor=#232F3E;fillColor=#ffffff;dashed=0;verticalLabelPosition=bottom;verticalAlign=top;align=center;html=1;fontSize=12;fontStyle=0;aspect=fixed;shape=mxgraph.aws4.resourceIcon;resIcon=mxgraph.aws4.nat_gateway;" vertex="1" parent="sktAWSOI8GVg2XgU-wJy-67">
          <mxGeometry x="160" y="290" width="60" height="60" as="geometry" />
        </mxCell>
        <mxCell id="sktAWSOI8GVg2XgU-wJy-58" value="Amazon RDS&amp;nbsp;&lt;div&gt;(Standby)&lt;/div&gt;" style="sketch=0;outlineConnect=0;fontColor=#232F3E;gradientColor=none;strokeColor=#ffffff;fillColor=#232F3E;dashed=0;verticalLabelPosition=middle;verticalAlign=bottom;align=center;html=1;whiteSpace=wrap;fontSize=10;fontStyle=1;spacing=3;shape=mxgraph.aws4.productIcon;prIcon=mxgraph.aws4.rds;" vertex="1" parent="sktAWSOI8GVg2XgU-wJy-67">
          <mxGeometry x="460" y="900" width="80" height="110" as="geometry" />
        </mxCell>
        <mxCell id="sktAWSOI8GVg2XgU-wJy-76" value="Amazon EC2&amp;nbsp;&lt;div&gt;(Patient)&lt;/div&gt;" style="sketch=0;outlineConnect=0;fontColor=#232F3E;gradientColor=none;strokeColor=#ffffff;fillColor=#232F3E;dashed=0;verticalLabelPosition=middle;verticalAlign=bottom;align=center;html=1;whiteSpace=wrap;fontSize=10;fontStyle=1;spacing=3;shape=mxgraph.aws4.productIcon;prIcon=mxgraph.aws4.ec2;" vertex="1" parent="sktAWSOI8GVg2XgU-wJy-67">
          <mxGeometry x="460" y="780" width="80" height="105" as="geometry" />
        </mxCell>
        <mxCell id="sktAWSOI8GVg2XgU-wJy-93" value="" style="edgeStyle=orthogonalEdgeStyle;html=1;endArrow=block;elbow=vertical;startArrow=block;startFill=1;endFill=1;strokeColor=#000000;rounded=0;entryX=0.855;entryY=0.855;entryDx=0;entryDy=0;entryPerimeter=0;" edge="1" parent="sktAWSOI8GVg2XgU-wJy-67" source="sktAWSOI8GVg2XgU-wJy-75" target="sktAWSOI8GVg2XgU-wJy-83">
          <mxGeometry width="100" relative="1" as="geometry">
            <mxPoint x="430" y="470" as="sourcePoint" />
            <mxPoint x="390" y="310" as="targetPoint" />
            <Array as="points">
              <mxPoint x="590" y="192" />
            </Array>
          </mxGeometry>
        </mxCell>
        <mxCell id="sktAWSOI8GVg2XgU-wJy-92" value="" style="edgeStyle=orthogonalEdgeStyle;html=1;endArrow=block;elbow=vertical;startArrow=block;startFill=1;endFill=1;strokeColor=#000000;rounded=0;" edge="1" parent="sktAWSOI8GVg2XgU-wJy-67" source="sktAWSOI8GVg2XgU-wJy-81">
          <mxGeometry width="100" relative="1" as="geometry">
            <mxPoint x="210" y="344" as="sourcePoint" />
            <mxPoint x="365.5" y="190" as="targetPoint" />
            <Array as="points">
              <mxPoint x="210" y="190" />
            </Array>
          </mxGeometry>
        </mxCell>
        <mxCell id="sktAWSOI8GVg2XgU-wJy-95" value="Amazon ElastiCache" style="sketch=0;outlineConnect=0;fontColor=#232F3E;gradientColor=none;strokeColor=#ffffff;fillColor=#232F3E;dashed=0;verticalLabelPosition=middle;verticalAlign=bottom;align=center;html=1;whiteSpace=wrap;fontSize=10;fontStyle=1;spacing=3;shape=mxgraph.aws4.productIcon;prIcon=mxgraph.aws4.elasticache;" vertex="1" parent="sktAWSOI8GVg2XgU-wJy-67">
          <mxGeometry x="550" y="900" width="80" height="110" as="geometry" />
        </mxCell>
        <mxCell id="sktAWSOI8GVg2XgU-wJy-97" value="Data Tier" style="text;html=1;align=center;verticalAlign=middle;resizable=0;points=[];autosize=1;strokeColor=none;fillColor=none;" vertex="1" parent="sktAWSOI8GVg2XgU-wJy-67">
          <mxGeometry x="40" y="900" width="70" height="30" as="geometry" />
        </mxCell>
        <mxCell id="sktAWSOI8GVg2XgU-wJy-98" value="Data Tier" style="text;html=1;align=center;verticalAlign=middle;resizable=0;points=[];autosize=1;strokeColor=none;fillColor=none;" vertex="1" parent="sktAWSOI8GVg2XgU-wJy-67">
          <mxGeometry x="660" y="900" width="70" height="30" as="geometry" />
        </mxCell>
        <mxCell id="sktAWSOI8GVg2XgU-wJy-99" value="App Tier" style="text;html=1;align=center;verticalAlign=middle;resizable=0;points=[];autosize=1;strokeColor=none;fillColor=none;" vertex="1" parent="sktAWSOI8GVg2XgU-wJy-67">
          <mxGeometry x="660" y="772.5" width="70" height="30" as="geometry" />
        </mxCell>
        <mxCell id="sktAWSOI8GVg2XgU-wJy-103" value="Amazon EC2&amp;nbsp;&lt;div&gt;(Appointment)&lt;/div&gt;" style="sketch=0;outlineConnect=0;fontColor=#232F3E;gradientColor=none;strokeColor=#ffffff;fillColor=#232F3E;dashed=0;verticalLabelPosition=middle;verticalAlign=bottom;align=center;html=1;whiteSpace=wrap;fontSize=10;fontStyle=1;spacing=3;shape=mxgraph.aws4.productIcon;prIcon=mxgraph.aws4.ec2;" vertex="1" parent="sktAWSOI8GVg2XgU-wJy-67">
          <mxGeometry x="150" y="780" width="80" height="105" as="geometry" />
        </mxCell>
        <mxCell id="sktAWSOI8GVg2XgU-wJy-104" value="Amazon EC2&amp;nbsp;&lt;div&gt;(Appointment)&lt;/div&gt;" style="sketch=0;outlineConnect=0;fontColor=#232F3E;gradientColor=none;strokeColor=#ffffff;fillColor=#232F3E;dashed=0;verticalLabelPosition=middle;verticalAlign=bottom;align=center;html=1;whiteSpace=wrap;fontSize=10;fontStyle=1;spacing=3;shape=mxgraph.aws4.productIcon;prIcon=mxgraph.aws4.ec2;" vertex="1" parent="sktAWSOI8GVg2XgU-wJy-67">
          <mxGeometry x="550" y="780" width="80" height="105" as="geometry" />
        </mxCell>
        <mxCell id="sktAWSOI8GVg2XgU-wJy-6" value="Application Load Balancer&lt;div&gt;(Public)&lt;/div&gt;" style="sketch=0;outlineConnect=0;fontColor=#232F3E;gradientColor=none;strokeColor=#ffffff;fillColor=#232F3E;dashed=0;verticalLabelPosition=middle;verticalAlign=bottom;align=center;html=1;whiteSpace=wrap;fontSize=10;fontStyle=1;spacing=3;shape=mxgraph.aws4.productIcon;prIcon=mxgraph.aws4.application_load_balancer;" vertex="1" parent="sktAWSOI8GVg2XgU-wJy-67">
          <mxGeometry x="350" y="380" width="80" height="120" as="geometry" />
        </mxCell>
        <mxCell id="sktAWSOI8GVg2XgU-wJy-75" value="NAT gateway&amp;nbsp;&lt;div&gt;(Outbound Internet)&lt;/div&gt;" style="sketch=0;outlineConnect=0;fontColor=#232F3E;gradientColor=none;strokeColor=#232F3E;fillColor=#ffffff;dashed=0;verticalLabelPosition=bottom;verticalAlign=top;align=center;html=1;fontSize=12;fontStyle=0;aspect=fixed;shape=mxgraph.aws4.resourceIcon;resIcon=mxgraph.aws4.nat_gateway;" vertex="1" parent="sktAWSOI8GVg2XgU-wJy-67">
          <mxGeometry x="570" y="290" width="60" height="60" as="geometry" />
        </mxCell>
        <mxCell id="sktAWSOI8GVg2XgU-wJy-114" value="Web Tier" style="text;html=1;align=center;verticalAlign=middle;resizable=0;points=[];autosize=1;strokeColor=none;fillColor=none;" vertex="1" parent="sktAWSOI8GVg2XgU-wJy-67">
          <mxGeometry x="660" y="440" width="70" height="30" as="geometry" />
        </mxCell>
        <mxCell id="sktAWSOI8GVg2XgU-wJy-116" value="Amazon EC2&amp;nbsp;&lt;div&gt;(Patient Screen)&lt;/div&gt;" style="sketch=0;outlineConnect=0;fontColor=#232F3E;gradientColor=none;strokeColor=#ffffff;fillColor=#232F3E;dashed=0;verticalLabelPosition=middle;verticalAlign=bottom;align=center;html=1;whiteSpace=wrap;fontSize=10;fontStyle=1;spacing=3;shape=mxgraph.aws4.productIcon;prIcon=mxgraph.aws4.ec2;" vertex="1" parent="sktAWSOI8GVg2XgU-wJy-67">
          <mxGeometry x="240" y="510" width="80" height="120" as="geometry" />
        </mxCell>
        <mxCell id="sktAWSOI8GVg2XgU-wJy-117" value="Amazon EC2&amp;nbsp;&lt;div&gt;(Patient Screen)&lt;/div&gt;" style="sketch=0;outlineConnect=0;fontColor=#232F3E;gradientColor=none;strokeColor=#ffffff;fillColor=#232F3E;dashed=0;verticalLabelPosition=middle;verticalAlign=bottom;align=center;html=1;whiteSpace=wrap;fontSize=10;fontStyle=1;spacing=3;shape=mxgraph.aws4.productIcon;prIcon=mxgraph.aws4.ec2;" vertex="1" parent="sktAWSOI8GVg2XgU-wJy-67">
          <mxGeometry x="460" y="510" width="80" height="120" as="geometry" />
        </mxCell>
        <mxCell id="sktAWSOI8GVg2XgU-wJy-118" value="Amazon EC2&amp;nbsp;&lt;div&gt;(Appointment Screen)&lt;/div&gt;" style="sketch=0;outlineConnect=0;fontColor=#232F3E;gradientColor=none;strokeColor=#ffffff;fillColor=#232F3E;dashed=0;verticalLabelPosition=middle;verticalAlign=bottom;align=center;html=1;whiteSpace=wrap;fontSize=10;fontStyle=1;spacing=3;shape=mxgraph.aws4.productIcon;prIcon=mxgraph.aws4.ec2;" vertex="1" parent="sktAWSOI8GVg2XgU-wJy-67">
          <mxGeometry x="150" y="510" width="80" height="120" as="geometry" />
        </mxCell>
        <mxCell id="sktAWSOI8GVg2XgU-wJy-119" value="Amazon EC2&amp;nbsp;&lt;div&gt;(Appointment Screen)&lt;/div&gt;" style="sketch=0;outlineConnect=0;fontColor=#232F3E;gradientColor=none;strokeColor=#ffffff;fillColor=#232F3E;dashed=0;verticalLabelPosition=middle;verticalAlign=bottom;align=center;html=1;whiteSpace=wrap;fontSize=10;fontStyle=1;spacing=3;shape=mxgraph.aws4.productIcon;prIcon=mxgraph.aws4.ec2;" vertex="1" parent="sktAWSOI8GVg2XgU-wJy-67">
          <mxGeometry x="550" y="510" width="80" height="120" as="geometry" />
        </mxCell>
        <mxCell id="sktAWSOI8GVg2XgU-wJy-110" value="Application Load Balancer&lt;div&gt;(Internal)&lt;/div&gt;" style="sketch=0;outlineConnect=0;fontColor=#232F3E;gradientColor=none;strokeColor=#ffffff;fillColor=#232F3E;dashed=0;verticalLabelPosition=middle;verticalAlign=bottom;align=center;html=1;whiteSpace=wrap;fontSize=10;fontStyle=1;spacing=3;shape=mxgraph.aws4.productIcon;prIcon=mxgraph.aws4.application_load_balancer;" vertex="1" parent="sktAWSOI8GVg2XgU-wJy-67">
          <mxGeometry x="350" y="635" width="80" height="130" as="geometry" />
        </mxCell>
        <mxCell id="sktAWSOI8GVg2XgU-wJy-91" value="Auto Scaling group" style="points=[[0,0],[0.25,0],[0.5,0],[0.75,0],[1,0],[1,0.25],[1,0.5],[1,0.75],[1,1],[0.75,1],[0.5,1],[0.25,1],[0,1],[0,0.75],[0,0.5],[0,0.25]];outlineConnect=0;gradientColor=none;html=1;whiteSpace=wrap;fontSize=12;fontStyle=0;container=1;pointerEvents=0;collapsible=0;recursiveResize=0;shape=mxgraph.aws4.groupCenter;grIcon=mxgraph.aws4.group_auto_scaling_group;grStroke=1;strokeColor=#D86613;fillColor=none;verticalAlign=top;align=center;fontColor=#D86613;dashed=1;spacingTop=25;" vertex="1" parent="sktAWSOI8GVg2XgU-wJy-67">
          <mxGeometry x="120" y="772.5" width="540" height="120" as="geometry" />
        </mxCell>
        <mxCell id="sktAWSOI8GVg2XgU-wJy-121" value="" style="edgeStyle=orthogonalEdgeStyle;html=1;endArrow=none;elbow=vertical;startArrow=block;endFill=1;strokeColor=#545B64;rounded=0;startFill=1;" edge="1" parent="sktAWSOI8GVg2XgU-wJy-67">
          <mxGeometry width="100" relative="1" as="geometry">
            <mxPoint x="189.76" y="390" as="sourcePoint" />
            <mxPoint x="189.76" y="420" as="targetPoint" />
            <Array as="points" />
          </mxGeometry>
        </mxCell>
        <mxCell id="sktAWSOI8GVg2XgU-wJy-123" value="" style="edgeStyle=orthogonalEdgeStyle;html=1;endArrow=none;elbow=vertical;startArrow=block;endFill=1;strokeColor=#545B64;rounded=0;startFill=1;" edge="1" parent="sktAWSOI8GVg2XgU-wJy-67">
          <mxGeometry width="100" relative="1" as="geometry">
            <mxPoint x="599.8299999999999" y="390" as="sourcePoint" />
            <mxPoint x="599.8299999999999" y="420" as="targetPoint" />
            <Array as="points" />
          </mxGeometry>
        </mxCell>
        <mxCell id="sktAWSOI8GVg2XgU-wJy-124" value="&lt;font style=&quot;font-size: 10px;&quot;&gt;All outbound traffic&amp;nbsp;&lt;/font&gt;&lt;div&gt;&lt;font style=&quot;font-size: 10px;&quot;&gt;from&amp;nbsp;&lt;span style=&quot;background-color: transparent; color: light-dark(rgb(0, 0, 0), rgb(255, 255, 255));&quot;&gt;private subnet&lt;/span&gt;&lt;/font&gt;&lt;/div&gt;" style="text;html=1;align=center;verticalAlign=middle;resizable=0;points=[];autosize=1;strokeColor=none;fillColor=none;" vertex="1" parent="sktAWSOI8GVg2XgU-wJy-67">
          <mxGeometry x="83" y="384" width="110" height="40" as="geometry" />
        </mxCell>
        <mxCell id="sktAWSOI8GVg2XgU-wJy-94" value="Amazon ElastiCache" style="sketch=0;outlineConnect=0;fontColor=#232F3E;gradientColor=none;strokeColor=#ffffff;fillColor=#232F3E;dashed=0;verticalLabelPosition=middle;verticalAlign=bottom;align=center;html=1;whiteSpace=wrap;fontSize=10;fontStyle=1;spacing=3;shape=mxgraph.aws4.productIcon;prIcon=mxgraph.aws4.elasticache;" vertex="1" parent="sktAWSOI8GVg2XgU-wJy-67">
          <mxGeometry x="150" y="900" width="80" height="110" as="geometry" />
        </mxCell>
        <mxCell id="sktAWSOI8GVg2XgU-wJy-21" value="Amazon S3&lt;div&gt;(Static assets, logs, backup)&lt;/div&gt;" style="sketch=0;outlineConnect=0;fontColor=#232F3E;gradientColor=none;strokeColor=#ffffff;fillColor=#232F3E;dashed=0;verticalLabelPosition=middle;verticalAlign=bottom;align=center;html=1;whiteSpace=wrap;fontSize=10;fontStyle=1;spacing=3;shape=mxgraph.aws4.productIcon;prIcon=mxgraph.aws4.s3;" vertex="1" parent="sktAWSOI8GVg2XgU-wJy-67">
          <mxGeometry x="120" y="1050" width="80" height="120" as="geometry" />
        </mxCell>
        <mxCell id="sktAWSOI8GVg2XgU-wJy-35" value="Amazon CloudWatch&amp;nbsp;&lt;div&gt;&lt;span style=&quot;background-color: transparent; color: light-dark(rgb(35, 47, 62), rgb(189, 199, 212));&quot;&gt;(Logs, metrics, alarms)&lt;/span&gt;&lt;/div&gt;" style="sketch=0;outlineConnect=0;fontColor=#232F3E;gradientColor=none;strokeColor=#ffffff;fillColor=#232F3E;dashed=0;verticalLabelPosition=middle;verticalAlign=bottom;align=center;html=1;whiteSpace=wrap;fontSize=10;fontStyle=1;spacing=3;shape=mxgraph.aws4.productIcon;prIcon=mxgraph.aws4.cloudwatch;" vertex="1" parent="sktAWSOI8GVg2XgU-wJy-67">
          <mxGeometry x="210" y="1050" width="80" height="130" as="geometry" />
        </mxCell>
        <mxCell id="sktAWSOI8GVg2XgU-wJy-36" value="&lt;font style=&quot;font-size: 10px;&quot;&gt;AWS IAM&amp;nbsp;&lt;/font&gt;&lt;div&gt;&lt;font style=&quot;font-size: 10px;&quot;&gt;(Roles, User,&amp;nbsp;&lt;/font&gt;&lt;/div&gt;&lt;div&gt;&lt;font style=&quot;font-size: 10px;&quot;&gt;Policies)&lt;/font&gt;&lt;/div&gt;" style="outlineConnect=0;dashed=0;verticalLabelPosition=bottom;verticalAlign=top;align=center;html=1;shape=mxgraph.aws3.iam;fillColor=#759C3E;gradientColor=none;" vertex="1" parent="sktAWSOI8GVg2XgU-wJy-67">
          <mxGeometry x="309" y="1050" width="42" height="81" as="geometry" />
        </mxCell>
        <mxCell id="sktAWSOI8GVg2XgU-wJy-37" value="&lt;font style=&quot;font-size: 10px;&quot;&gt;AWS KMS&lt;/font&gt;&lt;div&gt;&lt;font style=&quot;font-size: 10px;&quot;&gt;(Encryption&amp;nbsp;&lt;/font&gt;&lt;/div&gt;&lt;div&gt;&lt;font style=&quot;font-size: 10px;&quot;&gt;Keys)&lt;/font&gt;&lt;/div&gt;" style="outlineConnect=0;dashed=0;verticalLabelPosition=bottom;verticalAlign=top;align=center;html=1;shape=mxgraph.aws3.kms;fillColor=#759C3E;gradientColor=none;" vertex="1" parent="sktAWSOI8GVg2XgU-wJy-67">
          <mxGeometry x="380" y="1050" width="76.5" height="93" as="geometry" />
        </mxCell>
        <mxCell id="sktAWSOI8GVg2XgU-wJy-129" value="AWS Secrets Manager&amp;nbsp;&lt;div&gt;(API keys, access tokens)&lt;/div&gt;" style="sketch=0;outlineConnect=0;fontColor=#232F3E;gradientColor=none;strokeColor=#ffffff;fillColor=#232F3E;dashed=0;verticalLabelPosition=middle;verticalAlign=bottom;align=center;html=1;whiteSpace=wrap;fontSize=10;fontStyle=1;spacing=3;shape=mxgraph.aws4.productIcon;prIcon=mxgraph.aws4.secrets_manager;" vertex="1" parent="sktAWSOI8GVg2XgU-wJy-67">
          <mxGeometry x="470" y="1050" width="80" height="130" as="geometry" />
        </mxCell>
        <mxCell id="sktAWSOI8GVg2XgU-wJy-130" value="AWS CloudFormation (infra provision backup)" style="sketch=0;outlineConnect=0;fontColor=#232F3E;gradientColor=none;strokeColor=#ffffff;fillColor=#232F3E;dashed=0;verticalLabelPosition=middle;verticalAlign=bottom;align=center;html=1;whiteSpace=wrap;fontSize=10;fontStyle=1;spacing=3;shape=mxgraph.aws4.productIcon;prIcon=mxgraph.aws4.cloudformation;" vertex="1" parent="sktAWSOI8GVg2XgU-wJy-67">
          <mxGeometry x="560" y="1050" width="80" height="130" as="geometry" />
        </mxCell>
        <mxCell id="sktAWSOI8GVg2XgU-wJy-22" value="CI/CD Pipeline" style="fillColor=none;strokeColor=#5A6C86;dashed=1;verticalAlign=top;fontStyle=0;fontColor=#5A6C86;whiteSpace=wrap;html=1;" vertex="1" parent="sktAWSOI8GVg2XgU-wJy-67">
          <mxGeometry x="10" y="1200" width="760" height="240" as="geometry" />
        </mxCell>
        <mxCell id="sktAWSOI8GVg2XgU-wJy-20" value="AWS CodePipeline&amp;nbsp;&lt;div&gt;(Orchestrates pipeline&lt;span style=&quot;background-color: transparent; color: light-dark(rgb(35, 47, 62), rgb(189, 199, 212));&quot;&gt;)&lt;/span&gt;&lt;/div&gt;" style="sketch=0;outlineConnect=0;fontColor=#232F3E;gradientColor=none;strokeColor=#ffffff;fillColor=#232F3E;dashed=0;verticalLabelPosition=middle;verticalAlign=bottom;align=center;html=1;whiteSpace=wrap;fontSize=10;fontStyle=1;spacing=3;shape=mxgraph.aws4.productIcon;prIcon=mxgraph.aws4.codepipeline;" vertex="1" parent="sktAWSOI8GVg2XgU-wJy-67">
          <mxGeometry x="660" y="1180" width="80" height="130" as="geometry" />
        </mxCell>
        <mxCell id="sktAWSOI8GVg2XgU-wJy-26" value="" style="edgeStyle=orthogonalEdgeStyle;rounded=0;orthogonalLoop=1;jettySize=auto;html=1;" edge="1" parent="sktAWSOI8GVg2XgU-wJy-67" source="sktAWSOI8GVg2XgU-wJy-24" target="sktAWSOI8GVg2XgU-wJy-25">
          <mxGeometry relative="1" as="geometry" />
        </mxCell>
        <mxCell id="sktAWSOI8GVg2XgU-wJy-24" value="AWS CodeCommit&amp;nbsp;&lt;div&gt;(Source Code)&lt;/div&gt;" style="sketch=0;outlineConnect=0;fontColor=#232F3E;gradientColor=none;strokeColor=#ffffff;fillColor=#232F3E;dashed=0;verticalLabelPosition=middle;verticalAlign=bottom;align=center;html=1;whiteSpace=wrap;fontSize=10;fontStyle=1;spacing=3;shape=mxgraph.aws4.productIcon;prIcon=mxgraph.aws4.codecommit;" vertex="1" parent="sktAWSOI8GVg2XgU-wJy-67">
          <mxGeometry x="90" y="1279.5" width="80" height="117" as="geometry" />
        </mxCell>
        <mxCell id="sktAWSOI8GVg2XgU-wJy-28" value="" style="edgeStyle=orthogonalEdgeStyle;rounded=0;orthogonalLoop=1;jettySize=auto;html=1;" edge="1" parent="sktAWSOI8GVg2XgU-wJy-67" source="sktAWSOI8GVg2XgU-wJy-25" target="sktAWSOI8GVg2XgU-wJy-27">
          <mxGeometry relative="1" as="geometry" />
        </mxCell>
        <mxCell id="sktAWSOI8GVg2XgU-wJy-25" value="AWS CodeBuild (Compile, tests, build artifacts)" style="sketch=0;outlineConnect=0;fontColor=#232F3E;gradientColor=none;strokeColor=#ffffff;fillColor=#232F3E;dashed=0;verticalLabelPosition=middle;verticalAlign=bottom;align=center;html=1;whiteSpace=wrap;fontSize=10;fontStyle=1;spacing=3;shape=mxgraph.aws4.productIcon;prIcon=mxgraph.aws4.codebuild;" vertex="1" parent="sktAWSOI8GVg2XgU-wJy-67">
          <mxGeometry x="210" y="1279.5" width="80" height="117" as="geometry" />
        </mxCell>
        <mxCell id="sktAWSOI8GVg2XgU-wJy-30" value="" style="edgeStyle=orthogonalEdgeStyle;rounded=0;orthogonalLoop=1;jettySize=auto;html=1;" edge="1" parent="sktAWSOI8GVg2XgU-wJy-67" source="sktAWSOI8GVg2XgU-wJy-27" target="sktAWSOI8GVg2XgU-wJy-29">
          <mxGeometry relative="1" as="geometry" />
        </mxCell>
        <mxCell id="sktAWSOI8GVg2XgU-wJy-31" value="Pushes&amp;nbsp;&lt;div&gt;image&lt;/div&gt;" style="edgeLabel;html=1;align=center;verticalAlign=middle;resizable=0;points=[];" vertex="1" connectable="0" parent="sktAWSOI8GVg2XgU-wJy-30">
          <mxGeometry x="-0.0667" relative="1" as="geometry">
            <mxPoint x="3" y="11" as="offset" />
          </mxGeometry>
        </mxCell>
        <mxCell id="sktAWSOI8GVg2XgU-wJy-27" value="AWS CodeDeploy" style="sketch=0;outlineConnect=0;fontColor=#232F3E;gradientColor=none;strokeColor=#ffffff;fillColor=#232F3E;dashed=0;verticalLabelPosition=middle;verticalAlign=bottom;align=center;html=1;whiteSpace=wrap;fontSize=10;fontStyle=1;spacing=3;shape=mxgraph.aws4.productIcon;prIcon=mxgraph.aws4.codedeploy;" vertex="1" parent="sktAWSOI8GVg2XgU-wJy-67">
          <mxGeometry x="330" y="1283" width="80" height="110" as="geometry" />
        </mxCell>
        <mxCell id="sktAWSOI8GVg2XgU-wJy-29" value="Amazon ECR&amp;nbsp;&lt;div&gt;(Image library)&lt;/div&gt;" style="sketch=0;outlineConnect=0;fontColor=#232F3E;gradientColor=none;strokeColor=#ffffff;fillColor=#232F3E;dashed=0;verticalLabelPosition=middle;verticalAlign=bottom;align=center;html=1;whiteSpace=wrap;fontSize=10;fontStyle=1;spacing=3;shape=mxgraph.aws4.productIcon;prIcon=mxgraph.aws4.ecr;" vertex="1" parent="sktAWSOI8GVg2XgU-wJy-67">
          <mxGeometry x="540" y="1330" width="80" height="110" as="geometry" />
        </mxCell>
        <mxCell id="sktAWSOI8GVg2XgU-wJy-136" value="" style="edgeStyle=orthogonalEdgeStyle;rounded=0;orthogonalLoop=1;jettySize=auto;html=1;" edge="1" parent="sktAWSOI8GVg2XgU-wJy-67" target="sktAWSOI8GVg2XgU-wJy-139">
          <mxGeometry relative="1" as="geometry">
            <mxPoint x="409.5" y="1310" as="sourcePoint" />
            <mxPoint x="541" y="1249" as="targetPoint" />
          </mxGeometry>
        </mxCell>
        <mxCell id="sktAWSOI8GVg2XgU-wJy-137" value="&lt;font&gt;Deploys&amp;nbsp;&lt;/font&gt;&lt;div&gt;&lt;font&gt;containerized app&lt;/font&gt;&lt;/div&gt;" style="edgeLabel;html=1;align=center;verticalAlign=middle;resizable=0;points=[];" vertex="1" connectable="0" parent="sktAWSOI8GVg2XgU-wJy-136">
          <mxGeometry x="-0.0667" relative="1" as="geometry">
            <mxPoint x="-5" y="-9" as="offset" />
          </mxGeometry>
        </mxCell>
        <mxCell id="sktAWSOI8GVg2XgU-wJy-139" value="Amazon ECS&amp;nbsp;&lt;div&gt;(Manages containers)&lt;/div&gt;" style="sketch=0;outlineConnect=0;fontColor=#232F3E;gradientColor=none;strokeColor=#ffffff;fillColor=#232F3E;dashed=0;verticalLabelPosition=middle;verticalAlign=bottom;align=center;html=1;whiteSpace=wrap;fontSize=10;fontStyle=1;spacing=3;shape=mxgraph.aws4.productIcon;prIcon=mxgraph.aws4.ecs;" vertex="1" parent="sktAWSOI8GVg2XgU-wJy-67">
          <mxGeometry x="540" y="1210" width="80" height="120" as="geometry" />
        </mxCell>
        <mxCell id="sktAWSOI8GVg2XgU-wJy-69" value="Amazon Route 53 (DNS,&amp;nbsp;&lt;div&gt;Health Checks,&amp;nbsp;&lt;/div&gt;&lt;div&gt;Failover)&lt;/div&gt;" style="sketch=0;outlineConnect=0;fontColor=#232F3E;gradientColor=none;strokeColor=#ffffff;fillColor=#232F3E;dashed=0;verticalLabelPosition=middle;verticalAlign=bottom;align=center;html=1;whiteSpace=wrap;fontSize=10;fontStyle=1;spacing=3;shape=mxgraph.aws4.productIcon;prIcon=mxgraph.aws4.route_53;" vertex="1" parent="sktAWSOI8GVg2XgU-wJy-67">
          <mxGeometry x="190" y="-90" width="80" height="130" as="geometry" />
        </mxCell>
        <mxCell id="sktAWSOI8GVg2XgU-wJy-43" value="Auth0" style="image;aspect=fixed;html=1;points=[];align=center;fontSize=12;image=img/lib/azure2/security/Multifactor_Authentication.svg;" vertex="1" parent="sktAWSOI8GVg2XgU-wJy-67">
          <mxGeometry x="100" y="-148" width="55.400000000000006" height="68" as="geometry" />
        </mxCell>
        <mxCell id="sktAWSOI8GVg2XgU-wJy-55" value="" style="edgeStyle=orthogonalEdgeStyle;rounded=0;orthogonalLoop=1;jettySize=auto;html=1;" edge="1" parent="sktAWSOI8GVg2XgU-wJy-67" source="sktAWSOI8GVg2XgU-wJy-44" target="sktAWSOI8GVg2XgU-wJy-43">
          <mxGeometry relative="1" as="geometry" />
        </mxCell>
        <mxCell id="sktAWSOI8GVg2XgU-wJy-44" value="LDAP Server" style="sketch=0;verticalLabelPosition=bottom;sketch=0;aspect=fixed;html=1;verticalAlign=top;strokeColor=none;fillColor=#000000;align=center;outlineConnect=0;pointerEvents=1;shape=mxgraph.citrix2.ldap;" vertex="1" parent="sktAWSOI8GVg2XgU-wJy-67">
          <mxGeometry x="30" y="-139" width="50" height="50" as="geometry" />
        </mxCell>
        <mxCell id="sktAWSOI8GVg2XgU-wJy-41" value="Authenticated&amp;nbsp;&lt;div&gt;User&lt;/div&gt;" style="sketch=0;outlineConnect=0;gradientColor=none;fontColor=#545B64;strokeColor=none;fillColor=#879196;dashed=0;verticalLabelPosition=bottom;verticalAlign=top;align=center;html=1;fontSize=12;fontStyle=0;aspect=fixed;shape=mxgraph.aws4.illustration_users;pointerEvents=1" vertex="1" parent="sktAWSOI8GVg2XgU-wJy-67">
          <mxGeometry x="320" y="-180" width="100" height="100" as="geometry" />
        </mxCell>
        <mxCell id="sktAWSOI8GVg2XgU-wJy-64" value="" style="edgeStyle=orthogonalEdgeStyle;html=1;endArrow=none;elbow=vertical;startArrow=block;startFill=1;strokeColor=#545B64;rounded=0;exitX=0.979;exitY=0.497;exitDx=0;exitDy=0;exitPerimeter=0;" edge="1" parent="sktAWSOI8GVg2XgU-wJy-67" source="sktAWSOI8GVg2XgU-wJy-43">
          <mxGeometry width="100" relative="1" as="geometry">
            <mxPoint x="220" y="-114.52999999999997" as="sourcePoint" />
            <mxPoint x="320" y="-114.52999999999997" as="targetPoint" />
          </mxGeometry>
        </mxCell>
        <mxCell id="sktAWSOI8GVg2XgU-wJy-65" value="Authenticate" style="edgeLabel;html=1;align=center;verticalAlign=middle;resizable=0;points=[];" vertex="1" connectable="0" parent="sktAWSOI8GVg2XgU-wJy-64">
          <mxGeometry x="0.0364" y="-1" relative="1" as="geometry">
            <mxPoint y="-12" as="offset" />
          </mxGeometry>
        </mxCell>
        <mxCell id="sktAWSOI8GVg2XgU-wJy-8" value="Amazon Cloudfront&amp;nbsp;&lt;div&gt;(Caches Static &amp;amp; Dynamic Content)&lt;/div&gt;" style="sketch=0;outlineConnect=0;fontColor=#232F3E;gradientColor=none;strokeColor=#ffffff;fillColor=#232F3E;dashed=0;verticalLabelPosition=middle;verticalAlign=bottom;align=center;html=1;whiteSpace=wrap;fontSize=10;fontStyle=1;spacing=3;shape=mxgraph.aws4.productIcon;prIcon=mxgraph.aws4.cloudfront;" vertex="1" parent="sktAWSOI8GVg2XgU-wJy-67">
          <mxGeometry x="330" y="-20" width="80" height="140" as="geometry" />
        </mxCell>
        <mxCell id="sktAWSOI8GVg2XgU-wJy-9" value="AWS WAF&amp;nbsp;&lt;div&gt;(DDoS, Web Exploits)&lt;/div&gt;" style="sketch=0;outlineConnect=0;fontColor=#232F3E;gradientColor=none;strokeColor=#ffffff;fillColor=#232F3E;dashed=0;verticalLabelPosition=middle;verticalAlign=bottom;align=center;html=1;whiteSpace=wrap;fontSize=10;fontStyle=1;spacing=3;shape=mxgraph.aws4.productIcon;prIcon=mxgraph.aws4.waf;" vertex="1" parent="sktAWSOI8GVg2XgU-wJy-67">
          <mxGeometry x="480" y="-20" width="80" height="120" as="geometry" />
        </mxCell>
        <mxCell id="sktAWSOI8GVg2XgU-wJy-12" value="" style="edgeStyle=orthogonalEdgeStyle;rounded=0;orthogonalLoop=1;jettySize=auto;html=1;endArrow=none;startFill=1;endFill=1;startArrow=block;" edge="1" parent="sktAWSOI8GVg2XgU-wJy-67" source="sktAWSOI8GVg2XgU-wJy-9">
          <mxGeometry relative="1" as="geometry">
            <mxPoint x="490" y="60" as="sourcePoint" />
            <mxPoint x="410" y="10" as="targetPoint" />
            <Array as="points">
              <mxPoint x="470" y="10" />
              <mxPoint x="470" y="10" />
            </Array>
          </mxGeometry>
        </mxCell>
        <mxCell id="sktAWSOI8GVg2XgU-wJy-106" value="Integrates&amp;nbsp;&lt;div&gt;with&lt;/div&gt;" style="edgeLabel;html=1;align=center;verticalAlign=middle;resizable=0;points=[];" vertex="1" connectable="0" parent="sktAWSOI8GVg2XgU-wJy-12">
          <mxGeometry x="0.2167" y="2" relative="1" as="geometry">
            <mxPoint x="3" y="18" as="offset" />
          </mxGeometry>
        </mxCell>
        <mxCell id="sktAWSOI8GVg2XgU-wJy-48" value="Amazon S3&lt;div&gt;(Static Assets)&lt;/div&gt;" style="sketch=0;outlineConnect=0;fontColor=#232F3E;gradientColor=none;strokeColor=#ffffff;fillColor=#232F3E;dashed=0;verticalLabelPosition=middle;verticalAlign=bottom;align=center;html=1;whiteSpace=wrap;fontSize=10;fontStyle=1;spacing=3;shape=mxgraph.aws4.productIcon;prIcon=mxgraph.aws4.s3;" vertex="1" parent="sktAWSOI8GVg2XgU-wJy-67">
          <mxGeometry x="130" y="40" width="80" height="110" as="geometry" />
        </mxCell>
        <mxCell id="sktAWSOI8GVg2XgU-wJy-49" value="" style="edgeStyle=orthogonalEdgeStyle;rounded=0;orthogonalLoop=1;jettySize=auto;html=1;startArrow=block;startFill=1;endArrow=block;endFill=1;" edge="1" parent="sktAWSOI8GVg2XgU-wJy-67" source="sktAWSOI8GVg2XgU-wJy-48" target="sktAWSOI8GVg2XgU-wJy-8">
          <mxGeometry relative="1" as="geometry">
            <Array as="points">
              <mxPoint x="350" y="110" />
            </Array>
          </mxGeometry>
        </mxCell>
        <mxCell id="sktAWSOI8GVg2XgU-wJy-108" value="Caches&amp;nbsp;&lt;div&gt;Static&amp;nbsp;&lt;div&gt;Content&lt;/div&gt;&lt;/div&gt;" style="edgeLabel;html=1;align=center;verticalAlign=middle;resizable=0;points=[];" vertex="1" connectable="0" parent="sktAWSOI8GVg2XgU-wJy-49">
          <mxGeometry x="0.0571" y="2" relative="1" as="geometry">
            <mxPoint x="-7" y="18" as="offset" />
          </mxGeometry>
        </mxCell>
        <mxCell id="sktAWSOI8GVg2XgU-wJy-83" value="Internet Gateway" style="outlineConnect=0;dashed=0;verticalLabelPosition=bottom;verticalAlign=top;align=center;html=1;shape=mxgraph.aws3.internet_gateway;fillColor=#F58534;gradientColor=none;" vertex="1" parent="sktAWSOI8GVg2XgU-wJy-67">
          <mxGeometry x="355.5" y="130" width="69" height="72" as="geometry" />
        </mxCell>
        <mxCell id="sktAWSOI8GVg2XgU-wJy-84" value="" style="edgeStyle=orthogonalEdgeStyle;html=1;endArrow=block;elbow=vertical;startArrow=block;startFill=1;endFill=1;strokeColor=#000000;rounded=0;exitX=0.855;exitY=0.145;exitDx=0;exitDy=0;exitPerimeter=0;" edge="1" parent="sktAWSOI8GVg2XgU-wJy-67" source="sktAWSOI8GVg2XgU-wJy-83" target="sktAWSOI8GVg2XgU-wJy-9">
          <mxGeometry width="100" relative="1" as="geometry">
            <mxPoint x="390" y="120" as="sourcePoint" />
            <mxPoint x="480" y="100.00347826086974" as="targetPoint" />
            <Array as="points">
              <mxPoint x="440" y="140" />
              <mxPoint x="440" y="50" />
            </Array>
          </mxGeometry>
        </mxCell>
        <mxCell id="sktAWSOI8GVg2XgU-wJy-85" value="HTTPS" style="edgeLabel;html=1;align=center;verticalAlign=middle;resizable=0;points=[];" vertex="1" connectable="0" parent="sktAWSOI8GVg2XgU-wJy-84">
          <mxGeometry x="0.1026" y="-2" relative="1" as="geometry">
            <mxPoint x="7" y="18" as="offset" />
          </mxGeometry>
        </mxCell>
        <mxCell id="sktAWSOI8GVg2XgU-wJy-70" value="" style="edgeStyle=orthogonalEdgeStyle;html=1;endArrow=none;elbow=vertical;startArrow=block;startFill=1;strokeColor=#545B64;rounded=0;" edge="1" parent="sktAWSOI8GVg2XgU-wJy-67">
          <mxGeometry width="100" relative="1" as="geometry">
            <mxPoint x="270" y="-48" as="sourcePoint" />
            <mxPoint x="320" y="-100" as="targetPoint" />
            <Array as="points">
              <mxPoint x="300" y="-48" />
              <mxPoint x="300" y="-100" />
            </Array>
          </mxGeometry>
        </mxCell>
        <mxCell id="sktAWSOI8GVg2XgU-wJy-11" value="" style="edgeStyle=orthogonalEdgeStyle;rounded=0;orthogonalLoop=1;jettySize=auto;html=1;endArrow=block;startFill=0;startArrow=none;endFill=1;" edge="1" parent="sktAWSOI8GVg2XgU-wJy-67" source="sktAWSOI8GVg2XgU-wJy-69" target="sktAWSOI8GVg2XgU-wJy-8">
          <mxGeometry relative="1" as="geometry">
            <mxPoint x="270" y="65.00000000000023" as="sourcePoint" />
          </mxGeometry>
        </mxCell>
        <mxCell id="sktAWSOI8GVg2XgU-wJy-33" value="Developers" style="sketch=0;outlineConnect=0;gradientColor=none;fontColor=#545B64;strokeColor=none;fillColor=#879196;dashed=0;verticalLabelPosition=bottom;verticalAlign=top;align=center;html=1;fontSize=12;fontStyle=0;aspect=fixed;shape=mxgraph.aws4.illustration_users;pointerEvents=1" vertex="1" parent="1">
          <mxGeometry x="20" y="990" width="100" height="100" as="geometry" />
        </mxCell>
        <mxCell id="sktAWSOI8GVg2XgU-wJy-34" value="" style="edgeStyle=orthogonalEdgeStyle;rounded=0;orthogonalLoop=1;jettySize=auto;html=1;" edge="1" parent="1" source="sktAWSOI8GVg2XgU-wJy-33" target="sktAWSOI8GVg2XgU-wJy-24">
          <mxGeometry relative="1" as="geometry" />
        </mxCell>
        <mxCell id="sktAWSOI8GVg2XgU-wJy-140" value="Pushes code" style="edgeLabel;html=1;align=center;verticalAlign=middle;resizable=0;points=[];" vertex="1" connectable="0" parent="sktAWSOI8GVg2XgU-wJy-34">
          <mxGeometry x="-0.033" relative="1" as="geometry">
            <mxPoint as="offset" />
          </mxGeometry>
        </mxCell>
      </root>
    </mxGraphModel>
  </diagram>
</mxfile>
